<svg xmlns="http://www.w3.org/2000/svg" xmlns:xlink="http://www.w3.org/1999/xlink" width="200" zoomAndPan="magnify" viewBox="0 0 150 149.999998" height="200" preserveAspectRatio="xMidYMid meet" version="1.0"><defs><clipPath id="436c5f33b8"><path d="M 52 18.734375 L 127 18.734375 L 127 72 L 52 72 Z M 52 18.734375 " clip-rule="nonzero"/></clipPath><clipPath id="0128d45c38"><path d="M 15.152344 50 L 90 50 L 90 112 L 15.152344 112 Z M 15.152344 50 " clip-rule="nonzero"/></clipPath><clipPath id="4218b1f84c"><path d="M 57 74 L 132 74 L 132 135.734375 L 57 135.734375 Z M 57 74 " clip-rule="nonzero"/></clipPath></defs><path fill="#fff3b4" d="M 118.621094 21.386719 L 60.253906 21.386719 C 59.90625 21.386719 59.5625 21.421875 59.21875 21.492188 C 58.878906 21.558594 58.546875 21.660156 58.222656 21.792969 C 57.902344 21.925781 57.597656 22.089844 57.308594 22.28125 C 57.015625 22.476562 56.75 22.695312 56.503906 22.941406 C 56.257812 23.1875 56.035156 23.457031 55.84375 23.746094 C 55.648438 24.035156 55.484375 24.34375 55.351562 24.664062 C 55.21875 24.984375 55.117188 25.316406 55.050781 25.660156 C 54.984375 26 54.949219 26.347656 54.949219 26.695312 L 54.949219 61.183594 C 54.949219 61.53125 54.984375 61.875 55.050781 62.21875 C 55.117188 62.558594 55.21875 62.890625 55.351562 63.214844 C 55.484375 63.535156 55.648438 63.839844 55.84375 64.132812 C 56.035156 64.421875 56.257812 64.6875 56.503906 64.933594 C 56.75 65.179688 57.015625 65.402344 57.308594 65.59375 C 57.597656 65.789062 57.902344 65.953125 58.222656 66.085938 C 58.546875 66.21875 58.878906 66.320312 59.21875 66.386719 C 59.5625 66.457031 59.90625 66.488281 60.253906 66.488281 L 79.648438 66.488281 L 89.144531 77.101562 L 98.617188 66.488281 L 118.621094 66.488281 C 118.96875 66.488281 119.3125 66.457031 119.65625 66.386719 C 119.996094 66.320312 120.328125 66.21875 120.648438 66.085938 C 120.972656 65.953125 121.277344 65.789062 121.566406 65.59375 C 121.855469 65.402344 122.125 65.179688 122.371094 64.933594 C 122.617188 64.6875 122.839844 64.421875 123.03125 64.132812 C 123.226562 63.839844 123.386719 63.535156 123.523438 63.214844 C 123.65625 62.890625 123.753906 62.558594 123.824219 62.21875 C 123.890625 61.875 123.925781 61.53125 123.925781 61.183594 L 123.925781 26.695312 C 123.925781 26.347656 123.890625 26 123.824219 25.660156 C 123.753906 25.316406 123.65625 24.984375 123.523438 24.664062 C 123.386719 24.34375 123.226562 24.035156 123.03125 23.746094 C 122.839844 23.457031 122.617188 23.1875 122.371094 22.941406 C 122.125 22.695312 121.855469 22.476562 121.566406 22.28125 C 121.277344 22.089844 120.972656 21.925781 120.648438 21.792969 C 120.328125 21.660156 119.996094 21.558594 119.65625 21.492188 C 119.3125 21.421875 118.96875 21.386719 118.621094 21.386719 Z M 118.621094 21.386719 " fill-opacity="1" fill-rule="nonzero"/><path fill="#ffb3c8" d="M 81.476562 53.222656 L 23.113281 53.222656 C 22.765625 53.222656 22.417969 53.257812 22.078125 53.328125 C 21.734375 53.394531 21.40625 53.496094 21.082031 53.628906 C 20.761719 53.761719 20.453125 53.925781 20.164062 54.117188 C 19.875 54.3125 19.609375 54.53125 19.359375 54.777344 C 19.113281 55.023438 18.894531 55.292969 18.703125 55.582031 C 18.507812 55.871094 18.34375 56.179688 18.210938 56.5 C 18.078125 56.820312 17.976562 57.152344 17.910156 57.496094 C 17.839844 57.835938 17.808594 58.183594 17.808594 58.53125 L 17.808594 93.019531 C 17.808594 93.367188 17.839844 93.710938 17.910156 94.054688 C 17.976562 94.394531 18.078125 94.726562 18.210938 95.050781 C 18.34375 95.371094 18.507812 95.675781 18.703125 95.964844 C 18.894531 96.257812 19.113281 96.523438 19.359375 96.769531 C 19.609375 97.015625 19.875 97.238281 20.164062 97.429688 C 20.453125 97.625 20.761719 97.789062 21.082031 97.921875 C 21.40625 98.054688 21.734375 98.15625 22.078125 98.222656 C 22.417969 98.289062 22.765625 98.324219 23.113281 98.324219 L 42.507812 98.324219 L 52.003906 108.9375 L 61.476562 98.324219 L 81.476562 98.324219 C 81.828125 98.324219 82.171875 98.289062 82.511719 98.222656 C 82.855469 98.15625 83.1875 98.054688 83.507812 97.921875 C 83.832031 97.789062 84.136719 97.625 84.425781 97.429688 C 84.714844 97.238281 84.984375 97.015625 85.230469 96.769531 C 85.476562 96.523438 85.695312 96.257812 85.890625 95.964844 C 86.082031 95.675781 86.246094 95.371094 86.378906 95.050781 C 86.515625 94.726562 86.613281 94.394531 86.683594 94.054688 C 86.75 93.710938 86.785156 93.367188 86.785156 93.019531 L 86.785156 58.53125 C 86.785156 58.183594 86.75 57.835938 86.683594 57.496094 C 86.613281 57.152344 86.515625 56.820312 86.378906 56.5 C 86.246094 56.179688 86.082031 55.871094 85.890625 55.582031 C 85.695312 55.292969 85.476562 55.023438 85.230469 54.777344 C 84.984375 54.53125 84.714844 54.3125 84.425781 54.117188 C 84.136719 53.925781 83.832031 53.761719 83.507812 53.628906 C 83.1875 53.496094 82.855469 53.394531 82.511719 53.328125 C 82.171875 53.257812 81.828125 53.222656 81.476562 53.222656 Z M 81.476562 53.222656 " fill-opacity="1" fill-rule="nonzero"/><path fill="#f8f6f7" d="M 52.296875 92.167969 L 41.152344 81.054688 C 30.0625 69.964844 41.152344 58.847656 52.269531 69.910156 C 63.410156 58.769531 74.527344 69.910156 63.386719 81.054688 Z M 52.296875 92.167969 " fill-opacity="1" fill-rule="nonzero"/><g clip-path="url(#436c5f33b8)"><path fill="#231f20" d="M 96.253906 71.796875 C 95.578125 71.800781 94.984375 71.578125 94.476562 71.132812 C 94.210938 70.898438 94.003906 70.621094 93.847656 70.300781 C 93.691406 69.984375 93.605469 69.644531 93.585938 69.292969 C 93.566406 68.9375 93.613281 68.59375 93.730469 68.261719 C 93.851562 67.925781 94.027344 67.628906 94.265625 67.363281 L 96.625 64.710938 C 97.160156 64.121094 97.820312 63.828125 98.617188 63.835938 L 118.621094 63.835938 C 118.972656 63.835938 119.308594 63.769531 119.636719 63.632812 C 119.960938 63.5 120.246094 63.308594 120.496094 63.058594 C 120.746094 62.808594 120.9375 62.523438 121.070312 62.199219 C 121.207031 61.875 121.273438 61.535156 121.273438 61.183594 L 121.273438 26.695312 C 121.273438 26.34375 121.207031 26.003906 121.070312 25.679688 C 120.9375 25.355469 120.746094 25.066406 120.496094 24.820312 C 120.246094 24.570312 119.960938 24.378906 119.636719 24.242188 C 119.308594 24.109375 118.972656 24.042969 118.621094 24.042969 L 60.253906 24.042969 C 59.902344 24.042969 59.5625 24.109375 59.238281 24.242188 C 58.914062 24.378906 58.628906 24.570312 58.378906 24.820312 C 58.128906 25.066406 57.9375 25.355469 57.804688 25.679688 C 57.667969 26.003906 57.601562 26.34375 57.601562 26.695312 L 57.601562 45.265625 C 57.601562 45.617188 57.535156 45.957031 57.398438 46.28125 C 57.265625 46.605469 57.074219 46.890625 56.824219 47.140625 C 56.574219 47.390625 56.289062 47.582031 55.964844 47.714844 C 55.640625 47.851562 55.300781 47.917969 54.949219 47.917969 C 54.597656 47.917969 54.257812 47.851562 53.933594 47.714844 C 53.609375 47.582031 53.320312 47.390625 53.074219 47.140625 C 52.824219 46.890625 52.632812 46.605469 52.496094 46.28125 C 52.363281 45.957031 52.296875 45.617188 52.296875 45.265625 L 52.296875 26.695312 C 52.296875 26.171875 52.347656 25.65625 52.449219 25.140625 C 52.550781 24.628906 52.703125 24.132812 52.902344 23.648438 C 53.101562 23.167969 53.347656 22.707031 53.636719 22.273438 C 53.925781 21.839844 54.257812 21.4375 54.625 21.066406 C 54.996094 20.699219 55.398438 20.367188 55.832031 20.078125 C 56.265625 19.785156 56.726562 19.542969 57.207031 19.339844 C 57.691406 19.140625 58.1875 18.992188 58.703125 18.886719 C 59.214844 18.785156 59.730469 18.734375 60.253906 18.734375 L 118.621094 18.734375 C 119.140625 18.734375 119.660156 18.785156 120.171875 18.886719 C 120.683594 18.992188 121.183594 19.140625 121.664062 19.339844 C 122.148438 19.542969 122.605469 19.785156 123.042969 20.078125 C 123.476562 20.367188 123.878906 20.699219 124.246094 21.066406 C 124.617188 21.4375 124.945312 21.839844 125.238281 22.273438 C 125.527344 22.707031 125.773438 23.167969 125.972656 23.648438 C 126.171875 24.132812 126.324219 24.628906 126.425781 25.140625 C 126.527344 25.65625 126.578125 26.171875 126.578125 26.695312 L 126.578125 61.183594 C 126.578125 61.707031 126.527344 62.222656 126.425781 62.734375 C 126.324219 63.25 126.171875 63.746094 125.972656 64.230469 C 125.773438 64.710938 125.527344 65.171875 125.238281 65.605469 C 124.945312 66.039062 124.617188 66.441406 124.246094 66.8125 C 123.878906 67.179688 123.476562 67.511719 123.042969 67.800781 C 122.605469 68.089844 122.148438 68.335938 121.664062 68.535156 C 121.183594 68.734375 120.683594 68.886719 120.171875 68.988281 C 119.660156 69.089844 119.140625 69.140625 118.621094 69.140625 L 99.808594 69.140625 L 98.21875 70.917969 C 97.695312 71.5 97.039062 71.792969 96.253906 71.796875 Z M 96.253906 71.796875 " fill-opacity="1" fill-rule="nonzero"/></g><g clip-path="url(#0128d45c38)"><path fill="#231f20" d="M 52.003906 111.589844 C 51.21875 111.585938 50.566406 111.296875 50.039062 110.714844 L 41.3125 100.976562 L 23.113281 100.976562 C 22.589844 100.976562 22.074219 100.925781 21.558594 100.824219 C 21.046875 100.722656 20.550781 100.570312 20.066406 100.371094 C 19.585938 100.171875 19.125 99.925781 18.691406 99.636719 C 18.257812 99.347656 17.855469 99.015625 17.484375 98.648438 C 17.117188 98.277344 16.785156 97.875 16.496094 97.441406 C 16.207031 97.007812 15.960938 96.546875 15.761719 96.0625 C 15.558594 95.582031 15.410156 95.082031 15.308594 94.570312 C 15.207031 94.058594 15.152344 93.542969 15.152344 93.019531 L 15.152344 58.53125 C 15.152344 58.007812 15.207031 57.488281 15.308594 56.976562 C 15.410156 56.464844 15.558594 55.96875 15.761719 55.484375 C 15.960938 55 16.207031 54.542969 16.496094 54.109375 C 16.785156 53.675781 17.117188 53.273438 17.484375 52.902344 C 17.855469 52.53125 18.257812 52.203125 18.691406 51.914062 C 19.125 51.621094 19.585938 51.378906 20.066406 51.175781 C 20.550781 50.976562 21.046875 50.824219 21.558594 50.722656 C 22.074219 50.621094 22.589844 50.570312 23.113281 50.570312 L 81.476562 50.570312 C 82 50.570312 82.519531 50.621094 83.03125 50.722656 C 83.542969 50.824219 84.042969 50.976562 84.523438 51.175781 C 85.007812 51.378906 85.464844 51.621094 85.898438 51.914062 C 86.335938 52.203125 86.738281 52.53125 87.105469 52.902344 C 87.476562 53.273438 87.804688 53.675781 88.097656 54.109375 C 88.386719 54.542969 88.632812 55 88.832031 55.484375 C 89.03125 55.96875 89.183594 56.464844 89.285156 56.976562 C 89.386719 57.488281 89.4375 58.007812 89.4375 58.53125 L 89.4375 69.140625 C 89.4375 69.492188 89.371094 69.832031 89.234375 70.15625 C 89.101562 70.480469 88.910156 70.769531 88.660156 71.019531 C 88.410156 71.265625 88.125 71.457031 87.800781 71.59375 C 87.472656 71.726562 87.136719 71.796875 86.785156 71.796875 C 86.433594 71.796875 86.09375 71.726562 85.769531 71.59375 C 85.445312 71.457031 85.15625 71.265625 84.910156 71.019531 C 84.660156 70.769531 84.46875 70.480469 84.332031 70.15625 C 84.199219 69.832031 84.132812 69.492188 84.132812 69.140625 L 84.132812 58.53125 C 84.132812 58.179688 84.0625 57.839844 83.929688 57.515625 C 83.792969 57.191406 83.601562 56.902344 83.355469 56.652344 C 83.105469 56.40625 82.820312 56.214844 82.492188 56.078125 C 82.167969 55.945312 81.832031 55.878906 81.476562 55.878906 L 23.113281 55.878906 C 22.761719 55.878906 22.421875 55.945312 22.097656 56.078125 C 21.773438 56.214844 21.484375 56.40625 21.238281 56.652344 C 20.988281 56.902344 20.796875 57.191406 20.660156 57.515625 C 20.527344 57.839844 20.460938 58.179688 20.460938 58.53125 L 20.460938 93.019531 C 20.460938 93.371094 20.527344 93.707031 20.660156 94.035156 C 20.796875 94.359375 20.988281 94.644531 21.238281 94.894531 C 21.484375 95.144531 21.773438 95.335938 22.097656 95.46875 C 22.421875 95.605469 22.761719 95.671875 23.113281 95.671875 L 42.507812 95.671875 C 43.300781 95.664062 43.964844 95.957031 44.496094 96.546875 L 53.992188 107.160156 C 54.230469 107.421875 54.410156 107.71875 54.527344 108.054688 C 54.644531 108.390625 54.695312 108.734375 54.675781 109.085938 C 54.652344 109.441406 54.566406 109.777344 54.410156 110.097656 C 54.257812 110.414062 54.046875 110.691406 53.78125 110.925781 C 53.273438 111.375 52.679688 111.59375 52.003906 111.589844 Z M 52.003906 111.589844 " fill-opacity="1" fill-rule="nonzero"/></g><path fill="#231f20" d="M 102.703125 34.652344 L 68.214844 34.652344 C 67.863281 34.652344 67.523438 34.585938 67.199219 34.453125 C 66.875 34.316406 66.585938 34.125 66.335938 33.875 C 66.089844 33.628906 65.898438 33.339844 65.761719 33.015625 C 65.628906 32.691406 65.5625 32.351562 65.5625 32 C 65.5625 31.648438 65.628906 31.308594 65.761719 30.984375 C 65.898438 30.660156 66.089844 30.375 66.335938 30.125 C 66.585938 29.875 66.875 29.683594 67.199219 29.550781 C 67.523438 29.414062 67.863281 29.347656 68.214844 29.347656 L 102.703125 29.347656 C 103.054688 29.347656 103.390625 29.414062 103.71875 29.550781 C 104.042969 29.683594 104.328125 29.875 104.578125 30.125 C 104.828125 30.375 105.019531 30.660156 105.152344 30.984375 C 105.289062 31.308594 105.355469 31.648438 105.355469 32 C 105.355469 32.351562 105.289062 32.691406 105.152344 33.015625 C 105.019531 33.339844 104.828125 33.628906 104.578125 33.875 C 104.328125 34.125 104.042969 34.316406 103.71875 34.453125 C 103.390625 34.585938 103.054688 34.652344 102.703125 34.652344 Z M 102.703125 34.652344 " fill-opacity="1" fill-rule="nonzero"/><path fill="#231f20" d="M 89.4375 45.265625 L 68.214844 45.265625 C 67.863281 45.265625 67.523438 45.199219 67.199219 45.0625 C 66.875 44.929688 66.585938 44.738281 66.335938 44.488281 C 66.089844 44.238281 65.898438 43.953125 65.761719 43.628906 C 65.628906 43.300781 65.5625 42.964844 65.5625 42.613281 C 65.5625 42.261719 65.628906 41.921875 65.761719 41.597656 C 65.898438 41.273438 66.089844 40.984375 66.335938 40.738281 C 66.585938 40.488281 66.875 40.296875 67.199219 40.160156 C 67.523438 40.027344 67.863281 39.960938 68.214844 39.960938 L 89.4375 39.960938 C 89.789062 39.960938 90.128906 40.027344 90.453125 40.160156 C 90.777344 40.296875 91.0625 40.488281 91.3125 40.738281 C 91.5625 40.984375 91.753906 41.273438 91.886719 41.597656 C 92.023438 41.921875 92.089844 42.261719 92.089844 42.613281 C 92.089844 42.964844 92.023438 43.300781 91.886719 43.628906 C 91.753906 43.953125 91.5625 44.238281 91.3125 44.488281 C 91.0625 44.738281 90.777344 44.929688 90.453125 45.0625 C 90.128906 45.199219 89.789062 45.265625 89.4375 45.265625 Z M 89.4375 45.265625 " fill-opacity="1" fill-rule="nonzero"/><path fill="#231f20" d="M 52.296875 94.824219 C 51.5625 94.828125 50.933594 94.570312 50.414062 94.054688 L 39.269531 82.9375 C 32.265625 75.933594 32.957031 68.875 36.617188 65.296875 C 40.277344 61.714844 45.929688 61.183594 52.296875 66.328125 C 53.050781 65.640625 53.867188 65.042969 54.753906 64.539062 C 55.640625 64.03125 56.570312 63.625 57.542969 63.324219 C 58.515625 63.019531 59.511719 62.828125 60.53125 62.742188 C 61.546875 62.660156 62.558594 62.6875 63.570312 62.828125 C 64.285156 62.96875 64.96875 63.195312 65.625 63.507812 C 66.28125 63.816406 66.890625 64.207031 67.453125 64.667969 C 68.011719 65.132812 68.507812 65.65625 68.9375 66.242188 C 69.367188 66.828125 69.71875 67.460938 69.992188 68.132812 C 70.121094 68.460938 70.183594 68.800781 70.179688 69.152344 C 70.175781 69.503906 70.101562 69.84375 69.964844 70.167969 C 69.824219 70.488281 69.628906 70.773438 69.375 71.019531 C 69.121094 71.265625 68.832031 71.453125 68.503906 71.582031 C 68.179688 71.714844 67.839844 71.777344 67.488281 71.769531 C 67.132812 71.765625 66.796875 71.695312 66.472656 71.554688 C 66.148438 71.414062 65.863281 71.21875 65.621094 70.96875 C 65.375 70.714844 65.1875 70.425781 65.054688 70.097656 C 64.832031 69.535156 64.484375 69.070312 64.007812 68.695312 C 63.535156 68.320312 63 68.089844 62.402344 68 C 61.617188 67.976562 60.835938 68.042969 60.0625 68.195312 C 59.289062 68.351562 58.546875 68.597656 57.832031 68.925781 C 57.113281 69.253906 56.445312 69.660156 55.824219 70.144531 C 55.203125 70.632812 54.644531 71.179688 54.152344 71.796875 C 53.902344 72.046875 53.617188 72.238281 53.289062 72.375 C 52.964844 72.511719 52.621094 72.578125 52.269531 72.578125 C 51.914062 72.578125 51.574219 72.511719 51.25 72.375 C 50.921875 72.238281 50.632812 72.046875 50.386719 71.796875 C 46.167969 67.578125 42.109375 67.230469 40.277344 69.140625 C 38.445312 71.050781 38.792969 75.03125 42.929688 79.25 L 54.152344 90.367188 C 54.402344 90.613281 54.597656 90.902344 54.734375 91.230469 C 54.871094 91.554688 54.9375 91.894531 54.9375 92.25 C 54.9375 92.601562 54.871094 92.941406 54.734375 93.269531 C 54.597656 93.597656 54.402344 93.882812 54.152344 94.132812 C 53.625 94.613281 53.007812 94.84375 52.296875 94.824219 Z M 52.296875 94.824219 " fill-opacity="1" fill-rule="nonzero"/><path fill="#f8f6f7" d="M 123.925781 77.101562 L 65.5625 77.101562 C 65.210938 77.101562 64.867188 77.136719 64.527344 77.203125 C 64.183594 77.269531 63.851562 77.371094 63.53125 77.503906 C 63.207031 77.636719 62.902344 77.800781 62.613281 77.996094 C 62.324219 78.1875 62.054688 78.410156 61.808594 78.65625 C 61.5625 78.902344 61.34375 79.167969 61.148438 79.460938 C 60.957031 79.75 60.792969 80.054688 60.660156 80.375 C 60.523438 80.699219 60.425781 81.03125 60.355469 81.371094 C 60.289062 81.714844 60.253906 82.058594 60.253906 82.40625 L 60.253906 116.894531 C 60.253906 117.242188 60.289062 117.589844 60.355469 117.929688 C 60.425781 118.273438 60.523438 118.605469 60.660156 118.925781 C 60.792969 119.246094 60.957031 119.554688 61.148438 119.84375 C 61.34375 120.132812 61.5625 120.402344 61.808594 120.648438 C 62.054688 120.894531 62.324219 121.113281 62.613281 121.308594 C 62.902344 121.5 63.207031 121.664062 63.53125 121.796875 C 63.851562 121.929688 64.183594 122.03125 64.527344 122.097656 C 64.867188 122.167969 65.210938 122.203125 65.5625 122.203125 L 84.953125 122.203125 L 94.453125 132.8125 L 103.921875 122.203125 L 123.925781 122.203125 C 124.273438 122.203125 124.621094 122.167969 124.960938 122.097656 C 125.300781 122.03125 125.632812 121.929688 125.957031 121.796875 C 126.277344 121.664062 126.582031 121.5 126.875 121.308594 C 127.164062 121.113281 127.429688 120.894531 127.675781 120.648438 C 127.925781 120.402344 128.144531 120.132812 128.335938 119.84375 C 128.53125 119.554688 128.695312 119.246094 128.828125 118.925781 C 128.960938 118.605469 129.0625 118.273438 129.128906 117.929688 C 129.199219 117.589844 129.230469 117.242188 129.230469 116.894531 L 129.230469 82.40625 C 129.230469 82.058594 129.199219 81.714844 129.128906 81.371094 C 129.0625 81.03125 128.960938 80.699219 128.828125 80.375 C 128.695312 80.054688 128.53125 79.75 128.335938 79.460938 C 128.144531 79.167969 127.925781 78.902344 127.675781 78.65625 C 127.429688 78.410156 127.164062 78.1875 126.875 77.996094 C 126.582031 77.800781 126.277344 77.636719 125.957031 77.503906 C 125.632812 77.371094 125.300781 77.269531 124.960938 77.203125 C 124.621094 77.136719 124.273438 77.101562 123.925781 77.101562 Z M 123.925781 77.101562 " fill-opacity="1" fill-rule="nonzero"/><path fill="#e6ceff" d="M 110.660156 100.976562 C 110.660156 101.5 110.636719 102.019531 110.585938 102.539062 C 110.535156 103.058594 110.457031 103.570312 110.355469 104.082031 C 110.253906 104.59375 110.125 105.097656 109.976562 105.597656 C 109.824219 106.097656 109.648438 106.585938 109.449219 107.070312 C 109.25 107.550781 109.027344 108.019531 108.78125 108.480469 C 108.535156 108.941406 108.269531 109.386719 107.976562 109.820312 C 107.6875 110.253906 107.378906 110.671875 107.046875 111.074219 C 106.71875 111.480469 106.367188 111.863281 106 112.234375 C 105.628906 112.601562 105.246094 112.953125 104.839844 113.28125 C 104.4375 113.613281 104.019531 113.921875 103.585938 114.210938 C 103.152344 114.503906 102.707031 114.769531 102.246094 115.015625 C 101.785156 115.261719 101.316406 115.484375 100.835938 115.683594 C 100.351562 115.882812 99.863281 116.058594 99.363281 116.210938 C 98.863281 116.359375 98.359375 116.488281 97.847656 116.589844 C 97.335938 116.691406 96.820312 116.769531 96.304688 116.820312 C 95.785156 116.871094 95.265625 116.894531 94.742188 116.894531 C 94.222656 116.894531 93.703125 116.871094 93.183594 116.820312 C 92.664062 116.769531 92.148438 116.691406 91.636719 116.589844 C 91.125 116.488281 90.621094 116.359375 90.121094 116.210938 C 89.625 116.058594 89.132812 115.882812 88.652344 115.683594 C 88.171875 115.484375 87.699219 115.261719 87.238281 115.015625 C 86.78125 114.769531 86.332031 114.503906 85.898438 114.210938 C 85.464844 113.921875 85.046875 113.613281 84.644531 113.28125 C 84.242188 112.953125 83.855469 112.601562 83.488281 112.234375 C 83.117188 111.863281 82.769531 111.480469 82.4375 111.074219 C 82.109375 110.671875 81.796875 110.253906 81.507812 109.820312 C 81.21875 109.386719 80.949219 108.941406 80.703125 108.480469 C 80.460938 108.019531 80.238281 107.550781 80.035156 107.070312 C 79.835938 106.585938 79.664062 106.097656 79.511719 105.597656 C 79.359375 105.097656 79.234375 104.59375 79.132812 104.082031 C 79.03125 103.570312 78.953125 103.058594 78.902344 102.539062 C 78.851562 102.019531 78.824219 101.5 78.824219 100.976562 C 78.824219 100.457031 78.851562 99.9375 78.902344 99.417969 C 78.953125 98.898438 79.03125 98.382812 79.132812 97.871094 C 79.234375 97.359375 79.359375 96.855469 79.511719 96.355469 C 79.664062 95.859375 79.835938 95.367188 80.035156 94.886719 C 80.238281 94.40625 80.460938 93.933594 80.703125 93.472656 C 80.949219 93.015625 81.21875 92.566406 81.507812 92.132812 C 81.796875 91.699219 82.109375 91.28125 82.4375 90.878906 C 82.769531 90.476562 83.117188 90.089844 83.488281 89.722656 C 83.855469 89.351562 84.242188 89.003906 84.644531 88.671875 C 85.046875 88.34375 85.464844 88.03125 85.898438 87.742188 C 86.332031 87.453125 86.78125 87.183594 87.238281 86.9375 C 87.699219 86.695312 88.171875 86.472656 88.652344 86.273438 C 89.132812 86.070312 89.625 85.898438 90.121094 85.746094 C 90.621094 85.59375 91.125 85.46875 91.636719 85.367188 C 92.148438 85.265625 92.664062 85.1875 93.183594 85.136719 C 93.703125 85.085938 94.222656 85.058594 94.742188 85.058594 C 95.265625 85.058594 95.785156 85.085938 96.304688 85.136719 C 96.820312 85.1875 97.335938 85.265625 97.847656 85.367188 C 98.359375 85.46875 98.863281 85.59375 99.363281 85.746094 C 99.863281 85.898438 100.351562 86.070312 100.835938 86.273438 C 101.316406 86.472656 101.785156 86.695312 102.246094 86.9375 C 102.707031 87.183594 103.152344 87.453125 103.585938 87.742188 C 104.019531 88.03125 104.4375 88.34375 104.839844 88.671875 C 105.246094 89.003906 105.628906 89.351562 106 89.722656 C 106.367188 90.089844 106.71875 90.476562 107.046875 90.878906 C 107.378906 91.28125 107.6875 91.699219 107.976562 92.132812 C 108.269531 92.566406 108.535156 93.015625 108.78125 93.472656 C 109.027344 93.933594 109.25 94.40625 109.449219 94.886719 C 109.648438 95.367188 109.824219 95.859375 109.976562 96.355469 C 110.125 96.855469 110.253906 97.359375 110.355469 97.871094 C 110.457031 98.382812 110.535156 98.898438 110.585938 99.417969 C 110.636719 99.9375 110.660156 100.457031 110.660156 100.976562 Z M 110.660156 100.976562 " fill-opacity="1" fill-rule="nonzero"/><g clip-path="url(#4218b1f84c)"><path fill="#231f20" d="M 94.453125 135.464844 C 93.65625 135.472656 92.992188 135.179688 92.460938 134.589844 L 83.785156 124.855469 L 65.5625 124.855469 C 65.039062 124.855469 64.519531 124.804688 64.007812 124.703125 C 63.496094 124.597656 62.996094 124.449219 62.515625 124.25 C 62.03125 124.046875 61.574219 123.804688 61.140625 123.511719 C 60.703125 123.222656 60.300781 122.894531 59.933594 122.523438 C 59.5625 122.152344 59.234375 121.75 58.941406 121.316406 C 58.652344 120.882812 58.40625 120.425781 58.207031 119.941406 C 58.007812 119.457031 57.855469 118.960938 57.753906 118.449219 C 57.652344 117.9375 57.601562 117.417969 57.601562 116.894531 L 57.601562 82.40625 C 57.601562 81.882812 57.652344 81.367188 57.753906 80.855469 C 57.855469 80.339844 58.007812 79.84375 58.207031 79.359375 C 58.40625 78.878906 58.652344 78.417969 58.941406 77.984375 C 59.234375 77.550781 59.5625 77.148438 59.933594 76.777344 C 60.300781 76.410156 60.703125 76.078125 61.140625 75.789062 C 61.574219 75.5 62.03125 75.253906 62.515625 75.054688 C 62.996094 74.855469 63.496094 74.703125 64.007812 74.601562 C 64.519531 74.5 65.039062 74.449219 65.5625 74.449219 L 123.925781 74.449219 C 124.449219 74.449219 124.964844 74.5 125.476562 74.601562 C 125.992188 74.703125 126.488281 74.855469 126.972656 75.054688 C 127.453125 75.253906 127.914062 75.5 128.347656 75.789062 C 128.78125 76.078125 129.183594 76.410156 129.554688 76.777344 C 129.921875 77.148438 130.253906 77.550781 130.542969 77.984375 C 130.832031 78.417969 131.078125 78.878906 131.277344 79.359375 C 131.480469 79.84375 131.628906 80.339844 131.730469 80.855469 C 131.832031 81.367188 131.882812 81.882812 131.882812 82.40625 L 131.882812 116.894531 C 131.882812 117.417969 131.832031 117.9375 131.730469 118.449219 C 131.628906 118.960938 131.480469 119.457031 131.277344 119.941406 C 131.078125 120.425781 130.832031 120.882812 130.542969 121.316406 C 130.253906 121.75 129.921875 122.152344 129.554688 122.523438 C 129.183594 122.894531 128.78125 123.222656 128.347656 123.511719 C 127.914062 123.804688 127.453125 124.046875 126.972656 124.25 C 126.488281 124.449219 125.992188 124.597656 125.476562 124.703125 C 124.964844 124.804688 124.449219 124.855469 123.925781 124.855469 L 105.117188 124.855469 L 96.414062 134.589844 C 95.890625 135.171875 95.234375 135.464844 94.453125 135.464844 Z M 65.5625 79.753906 C 65.207031 79.753906 64.871094 79.820312 64.546875 79.957031 C 64.21875 80.089844 63.933594 80.28125 63.683594 80.53125 C 63.4375 80.78125 63.246094 81.066406 63.109375 81.390625 C 62.976562 81.714844 62.90625 82.054688 62.90625 82.40625 L 62.90625 116.894531 C 62.90625 117.246094 62.976562 117.585938 63.109375 117.910156 C 63.246094 118.234375 63.4375 118.523438 63.683594 118.769531 C 63.933594 119.019531 64.21875 119.210938 64.546875 119.347656 C 64.871094 119.480469 65.207031 119.546875 65.5625 119.546875 L 84.953125 119.546875 C 85.746094 119.542969 86.410156 119.835938 86.945312 120.425781 L 94.453125 128.832031 L 101.933594 120.425781 C 102.464844 119.835938 103.128906 119.542969 103.921875 119.546875 L 123.925781 119.546875 C 124.277344 119.546875 124.617188 119.480469 124.941406 119.347656 C 125.265625 119.210938 125.554688 119.019531 125.800781 118.769531 C 126.050781 118.523438 126.242188 118.234375 126.375 117.910156 C 126.511719 117.585938 126.578125 117.246094 126.578125 116.894531 L 126.578125 82.40625 C 126.578125 82.054688 126.511719 81.714844 126.375 81.390625 C 126.242188 81.066406 126.050781 80.78125 125.800781 80.53125 C 125.554688 80.28125 125.265625 80.089844 124.941406 79.957031 C 124.617188 79.820312 124.277344 79.753906 123.925781 79.753906 Z M 65.5625 79.753906 " fill-opacity="1" fill-rule="nonzero"/></g><path fill="#231f20" d="M 94.742188 119.546875 C 94.136719 119.546875 93.527344 119.519531 92.921875 119.457031 C 92.316406 119.398438 91.714844 119.308594 91.121094 119.191406 C 90.523438 119.074219 89.933594 118.925781 89.351562 118.75 C 88.769531 118.570312 88.199219 118.367188 87.636719 118.132812 C 87.074219 117.902344 86.523438 117.640625 85.988281 117.355469 C 85.453125 117.070312 84.929688 116.757812 84.425781 116.417969 C 83.921875 116.082031 83.433594 115.71875 82.960938 115.332031 C 82.492188 114.945312 82.042969 114.539062 81.613281 114.109375 C 81.179688 113.679688 80.773438 113.230469 80.386719 112.757812 C 80 112.289062 79.640625 111.800781 79.300781 111.296875 C 78.964844 110.789062 78.652344 110.269531 78.363281 109.730469 C 78.078125 109.195312 77.820312 108.644531 77.585938 108.085938 C 77.351562 107.523438 77.148438 106.949219 76.972656 106.367188 C 76.796875 105.785156 76.648438 105.195312 76.527344 104.601562 C 76.410156 104.003906 76.320312 103.402344 76.261719 102.796875 C 76.203125 102.191406 76.171875 101.585938 76.171875 100.976562 C 76.171875 100.371094 76.203125 99.761719 76.261719 99.15625 C 76.320312 98.550781 76.410156 97.949219 76.527344 97.355469 C 76.648438 96.757812 76.796875 96.167969 76.972656 95.585938 C 77.148438 95.003906 77.351562 94.433594 77.585938 93.871094 C 77.820312 93.308594 78.078125 92.761719 78.363281 92.222656 C 78.652344 91.6875 78.964844 91.164062 79.300781 90.660156 C 79.640625 90.15625 80 89.667969 80.386719 89.195312 C 80.773438 88.726562 81.179688 88.277344 81.613281 87.847656 C 82.042969 87.417969 82.492188 87.007812 82.960938 86.621094 C 83.433594 86.238281 83.921875 85.875 84.425781 85.535156 C 84.929688 85.199219 85.453125 84.886719 85.988281 84.601562 C 86.523438 84.3125 87.074219 84.054688 87.636719 83.820312 C 88.199219 83.585938 88.769531 83.382812 89.351562 83.207031 C 89.933594 83.03125 90.523438 82.882812 91.121094 82.765625 C 91.714844 82.644531 92.316406 82.554688 92.921875 82.496094 C 93.527344 82.4375 94.136719 82.40625 94.742188 82.40625 C 95.351562 82.40625 95.957031 82.4375 96.5625 82.496094 C 97.167969 82.554688 97.769531 82.644531 98.367188 82.765625 C 98.960938 82.882812 99.550781 83.03125 100.132812 83.207031 C 100.714844 83.382812 101.289062 83.585938 101.851562 83.820312 C 102.410156 84.054688 102.960938 84.3125 103.496094 84.601562 C 104.035156 84.886719 104.554688 85.199219 105.058594 85.535156 C 105.566406 85.875 106.054688 86.238281 106.523438 86.621094 C 106.996094 87.007812 107.445312 87.417969 107.875 87.847656 C 108.304688 88.277344 108.710938 88.726562 109.097656 89.195312 C 109.484375 89.667969 109.847656 90.15625 110.183594 90.660156 C 110.523438 91.164062 110.835938 91.6875 111.121094 92.222656 C 111.40625 92.761719 111.667969 93.308594 111.898438 93.871094 C 112.132812 94.433594 112.335938 95.003906 112.515625 95.585938 C 112.691406 96.167969 112.839844 96.757812 112.957031 97.355469 C 113.074219 97.949219 113.164062 98.550781 113.222656 99.15625 C 113.285156 99.761719 113.3125 100.371094 113.3125 100.976562 C 113.3125 101.585938 113.285156 102.191406 113.222656 102.796875 C 113.164062 103.402344 113.074219 104.003906 112.957031 104.601562 C 112.839844 105.195312 112.691406 105.785156 112.515625 106.367188 C 112.335938 106.949219 112.132812 107.523438 111.898438 108.085938 C 111.667969 108.644531 111.40625 109.195312 111.121094 109.730469 C 110.835938 110.269531 110.523438 110.789062 110.183594 111.296875 C 109.847656 111.800781 109.484375 112.289062 109.097656 112.757812 C 108.710938 113.230469 108.304688 113.679688 107.875 114.109375 C 107.445312 114.539062 106.996094 114.945312 106.523438 115.332031 C 106.054688 115.71875 105.566406 116.082031 105.058594 116.417969 C 104.554688 116.757812 104.035156 117.070312 103.496094 117.355469 C 102.960938 117.640625 102.410156 117.902344 101.851562 118.132812 C 101.289062 118.367188 100.714844 118.570312 100.132812 118.75 C 99.550781 118.925781 98.960938 119.074219 98.367188 119.191406 C 97.769531 119.308594 97.167969 119.398438 96.5625 119.457031 C 95.957031 119.519531 95.351562 119.546875 94.742188 119.546875 Z M 94.742188 87.710938 C 93.871094 87.710938 93.007812 87.796875 92.15625 87.96875 C 91.300781 88.136719 90.472656 88.390625 89.667969 88.722656 C 88.863281 89.054688 88.097656 89.464844 87.375 89.949219 C 86.648438 90.433594 85.980469 90.980469 85.363281 91.597656 C 84.746094 92.214844 84.199219 92.882812 83.714844 93.609375 C 83.230469 94.332031 82.820312 95.097656 82.488281 95.902344 C 82.15625 96.707031 81.902344 97.535156 81.734375 98.390625 C 81.5625 99.242188 81.476562 100.105469 81.476562 100.976562 C 81.476562 101.847656 81.5625 102.710938 81.734375 103.566406 C 81.902344 104.417969 82.15625 105.25 82.488281 106.054688 C 82.820312 106.859375 83.230469 107.621094 83.714844 108.347656 C 84.199219 109.070312 84.746094 109.742188 85.363281 110.355469 C 85.980469 110.972656 86.648438 111.523438 87.375 112.007812 C 88.097656 112.492188 88.863281 112.898438 89.667969 113.234375 C 90.472656 113.566406 91.300781 113.816406 92.15625 113.988281 C 93.007812 114.15625 93.871094 114.242188 94.742188 114.242188 C 95.613281 114.242188 96.476562 114.15625 97.332031 113.988281 C 98.183594 113.816406 99.015625 113.566406 99.820312 113.234375 C 100.625 112.898438 101.386719 112.492188 102.113281 112.007812 C 102.835938 111.523438 103.507812 110.972656 104.121094 110.355469 C 104.738281 109.742188 105.289062 109.070312 105.773438 108.347656 C 106.257812 107.621094 106.664062 106.859375 107 106.054688 C 107.332031 105.25 107.582031 104.417969 107.753906 103.566406 C 107.921875 102.710938 108.007812 101.847656 108.007812 100.976562 C 108.007812 100.105469 107.921875 99.242188 107.753906 98.390625 C 107.582031 97.535156 107.332031 96.707031 107 95.902344 C 106.664062 95.097656 106.257812 94.332031 105.773438 93.609375 C 105.289062 92.882812 104.738281 92.214844 104.121094 91.597656 C 103.507812 90.980469 102.835938 90.433594 102.113281 89.949219 C 101.386719 89.464844 100.625 89.054688 99.820312 88.722656 C 99.015625 88.390625 98.183594 88.136719 97.332031 87.96875 C 96.476562 87.796875 95.613281 87.710938 94.742188 87.710938 Z M 94.742188 87.710938 " fill-opacity="1" fill-rule="nonzero"/><path fill="#231f20" d="M 94.742188 110.261719 C 94.21875 110.261719 93.703125 110.210938 93.191406 110.109375 C 92.679688 110.007812 92.179688 109.855469 91.699219 109.65625 C 91.214844 109.457031 90.757812 109.210938 90.320312 108.921875 C 89.886719 108.632812 89.484375 108.300781 89.117188 107.933594 C 88.746094 107.5625 88.414062 107.160156 88.125 106.726562 C 87.835938 106.292969 87.589844 105.832031 87.390625 105.351562 C 87.191406 104.867188 87.039062 104.371094 86.9375 103.855469 C 86.835938 103.34375 86.785156 102.828125 86.785156 102.304688 C 86.785156 101.953125 86.851562 101.613281 86.984375 101.289062 C 87.121094 100.964844 87.3125 100.675781 87.5625 100.429688 C 87.808594 100.179688 88.097656 99.988281 88.421875 99.851562 C 88.746094 99.71875 89.085938 99.652344 89.4375 99.652344 C 89.789062 99.652344 90.128906 99.71875 90.453125 99.851562 C 90.777344 99.988281 91.0625 100.179688 91.3125 100.429688 C 91.5625 100.675781 91.753906 100.964844 91.886719 101.289062 C 92.023438 101.613281 92.089844 101.953125 92.089844 102.304688 C 92.089844 102.65625 92.15625 102.996094 92.292969 103.320312 C 92.425781 103.644531 92.617188 103.929688 92.867188 104.179688 C 93.117188 104.429688 93.402344 104.621094 93.726562 104.753906 C 94.054688 104.890625 94.390625 104.957031 94.742188 104.957031 C 95.09375 104.957031 95.433594 104.890625 95.757812 104.753906 C 96.082031 104.621094 96.371094 104.429688 96.617188 104.179688 C 96.867188 103.929688 97.058594 103.644531 97.195312 103.320312 C 97.328125 102.996094 97.394531 102.65625 97.394531 102.304688 C 97.394531 101.953125 97.464844 101.613281 97.597656 101.289062 C 97.734375 100.964844 97.925781 100.675781 98.171875 100.429688 C 98.421875 100.179688 98.707031 99.988281 99.035156 99.851562 C 99.359375 99.71875 99.699219 99.652344 100.050781 99.652344 C 100.402344 99.652344 100.738281 99.71875 101.0625 99.851562 C 101.390625 99.988281 101.675781 100.179688 101.925781 100.429688 C 102.171875 100.675781 102.367188 100.964844 102.5 101.289062 C 102.632812 101.613281 102.703125 101.953125 102.703125 102.304688 C 102.703125 102.828125 102.652344 103.34375 102.550781 103.855469 C 102.445312 104.371094 102.296875 104.867188 102.097656 105.351562 C 101.894531 105.832031 101.652344 106.292969 101.359375 106.726562 C 101.070312 107.160156 100.742188 107.5625 100.371094 107.933594 C 100 108.300781 99.597656 108.632812 99.164062 108.921875 C 98.730469 109.210938 98.273438 109.457031 97.789062 109.65625 C 97.304688 109.855469 96.808594 110.007812 96.296875 110.109375 C 95.785156 110.210938 95.265625 110.261719 94.742188 110.261719 Z M 94.742188 110.261719 " fill-opacity="1" fill-rule="nonzero"/></svg>