<svg xmlns="http://www.w3.org/2000/svg" xmlns:xlink="http://www.w3.org/1999/xlink" width="200" zoomAndPan="magnify" viewBox="0 0 150 149.999998" height="200" preserveAspectRatio="xMidYMid meet" version="1.0"><defs><clipPath id="0c3603f635"><path d="M 1.226562 1.226562 L 148.976562 1.226562 L 148.976562 148.976562 L 1.226562 148.976562 Z M 1.226562 1.226562 " clip-rule="nonzero"/></clipPath><clipPath id="fafab50517"><path d="M 1.226562 1.226562 L 148.976562 1.226562 L 148.976562 148.976562 L 1.226562 148.976562 Z M 1.226562 1.226562 " clip-rule="nonzero"/></clipPath></defs><path fill="#000000" d="M 75.101562 31.613281 C 61.164062 31.613281 49.789062 42.941406 49.789062 56.878906 C 49.789062 70.867188 61.164062 82.195312 75.101562 82.195312 C 89.039062 82.195312 100.417969 70.867188 100.417969 56.878906 C 100.417969 42.941406 89.039062 31.613281 75.101562 31.613281 Z M 75.101562 31.613281 " fill-opacity="1" fill-rule="nonzero"/><g clip-path="url(#0c3603f635)"><path fill="#000000" d="M 75.054688 1.277344 C 34.375 1.277344 1.226562 34.371094 1.226562 75.101562 C 1.226562 97.757812 11.519531 118.046875 27.625 131.59375 C 27.625 131.59375 27.625 131.59375 27.625 131.640625 C 40.480469 142.425781 57.027344 148.929688 75.054688 148.929688 C 100.761719 148.929688 124.207031 135.925781 137.796875 114.109375 C 145.136719 102.386719 148.976562 88.941406 148.976562 75.101562 C 148.976562 61.261719 145.136719 47.769531 137.796875 36.097656 C 124.207031 14.277344 100.761719 1.277344 75.054688 1.277344 Z M 129.476562 108.886719 C 127.109375 112.679688 124.351562 116.03125 121.347656 119.179688 C 113.863281 103.816406 97.953125 93.570312 80.371094 93.570312 L 69.832031 93.570312 C 57.621094 93.570312 46.144531 98.347656 37.523438 106.96875 C 33.929688 110.511719 31.074219 114.699219 28.855469 119.230469 C 17.875 107.753906 11.078125 92.242188 11.078125 75.101562 C 11.078125 39.839844 39.789062 11.128906 75.054688 11.128906 C 97.363281 11.128906 117.65625 22.40625 129.476562 41.316406 C 135.777344 51.460938 139.128906 63.136719 139.128906 75.101562 C 139.128906 87.070312 135.777344 98.742188 129.476562 108.886719 Z M 129.476562 108.886719 " fill-opacity="1" fill-rule="nonzero"/></g><path fill="#000000" d="M 75.101562 31.613281 C 61.164062 31.613281 49.789062 42.941406 49.789062 56.878906 C 49.789062 70.867188 61.164062 82.195312 75.101562 82.195312 C 89.039062 82.195312 100.417969 70.867188 100.417969 56.878906 C 100.417969 42.941406 89.039062 31.613281 75.101562 31.613281 Z M 75.101562 31.613281 " fill-opacity="1" fill-rule="nonzero"/><g clip-path="url(#fafab50517)"><path fill="#000000" d="M 75.054688 1.277344 C 34.375 1.277344 1.226562 34.371094 1.226562 75.101562 C 1.226562 97.757812 11.519531 118.046875 27.625 131.59375 C 27.625 131.59375 27.625 131.59375 27.625 131.640625 C 40.480469 142.425781 57.027344 148.929688 75.054688 148.929688 C 100.761719 148.929688 124.207031 135.925781 137.796875 114.109375 C 145.136719 102.386719 148.976562 88.941406 148.976562 75.101562 C 148.976562 61.261719 145.136719 47.769531 137.796875 36.097656 C 124.207031 14.277344 100.761719 1.277344 75.054688 1.277344 Z M 129.476562 108.886719 C 127.109375 112.679688 124.351562 116.03125 121.347656 119.179688 C 113.863281 103.816406 97.953125 93.570312 80.371094 93.570312 L 69.832031 93.570312 C 57.621094 93.570312 46.144531 98.347656 37.523438 106.96875 C 33.929688 110.511719 31.074219 114.699219 28.855469 119.230469 C 17.875 107.753906 11.078125 92.242188 11.078125 75.101562 C 11.078125 39.839844 39.789062 11.128906 75.054688 11.128906 C 97.363281 11.128906 117.65625 22.40625 129.476562 41.316406 C 135.777344 51.460938 139.128906 63.136719 139.128906 75.101562 C 139.128906 87.070312 135.777344 98.742188 129.476562 108.886719 Z M 129.476562 108.886719 " fill-opacity="1" fill-rule="nonzero"/></g></svg>